<?xml version="1.0" encoding="iso-8859-1"?>
<!-- Generator: Adobe Illustrator 19.0.0, SVG Export Plug-In . SVG Version: 6.00 Build 0)  -->
<svg version="1.1" id="Layer_1" xmlns="http://www.w3.org/2000/svg" xmlns:xlink="http://www.w3.org/1999/xlink" x="0px" y="0px"
	 viewBox="0 0 480 480" style="enable-background:new 0 0 480 480;" xml:space="preserve">
<path style="fill:#353A3A;" d="M453.981,160h-133.6V26.4c0-14.4-15.2-26.4-29.6-26.4h-100.8c-14.4,0-29.6,12-29.6,26.4V160h-133.6
	c-14.4,0-26.4,15.2-26.4,29.6v100c0,15.2,12,30.4,26.4,30.4h133.6v133.6c0,14.4,15.2,26.4,29.6,26.4h100c14.4,0,29.6-12,29.6-26.4
	V320h133.6c14.4,0,26.4-15.2,26.4-29.6V189.6C480.381,175.2,468.381,160,453.981,160z"/>
<path style="fill:#1A1E1E;" d="M1.981,290.4c0,14.4,10.4,29.6,24.8,29.6h133.6v133.6c0,14.4,15.2,26.4,29.6,26.4h100
	c14.4,0,29.6-12,29.6-26.4V320h133.6c14.4,0,26.4-15.2,26.4-29.6V189.6c0-14.4-12-29.6-26.4-29.6h-132.8"/>
<polygon style="fill:#FFFFFF;" points="273.981,64 240.381,33.6 206.781,64 "/>
<polygon style="fill:#D2D8D8;" points="273.981,64 240.381,33.6 236.381,64 "/>
<polygon style="fill:#FFFFFF;" points="206.781,416 240.381,446.4 273.981,416 "/>
<polygon style="fill:#D2D8D8;" points="206.781,416 240.381,446.4 244.381,416 "/>
<polygon style="fill:#FFFFFF;" points="416.381,273.6 446.781,240 416.381,206.4 "/>
<polygon style="fill:#D2D8D8;" points="416.381,273.6 446.781,240 416.381,236 "/>
<polygon style="fill:#FFFFFF;" points="64.381,206.4 33.981,240 64.381,273.6 "/>
<polygon style="fill:#D2D8D8;" points="64.381,206.4 33.981,240 64.381,244 "/>
<circle style="fill:#353A3A;" cx="240.381" cy="240" r="29.6"/>
<g>
</g>
<g>
</g>
<g>
</g>
<g>
</g>
<g>
</g>
<g>
</g>
<g>
</g>
<g>
</g>
<g>
</g>
<g>
</g>
<g>
</g>
<g>
</g>
<g>
</g>
<g>
</g>
<g>
</g>
</svg>
